<svg
  xmlns="http://www.w3.org/2000/svg"
  width="800"
  height="600"
  id="svgcontent"
  x="400"
  y="300"
  viewBox="0 0 800 600"
>
  <g style="pointer-events: all">
    <title style="pointer-events: none" opacity="0.33">Layer 1</title>
    <g stroke="null" id="svg_1">
      <path
        stroke="null"
        id="svg_2"
        width="100%"
        height="100%"
        d="M566.92547,185.37284L610.38565,185.37284L630.48383,165.36833L636.4961,159.40954L706.75387,89.8903A366.74895,302.90528 0 0 0 471.93147,0.50841L448.91303,0.50841C441.18297,0.50841 435.34247,-0.20096 429.50197,0.50841S414.04182,0.50841 406.48353,0.50841C241.40355,-0.20096 111.88191,81.23585 75.29291,198.42545L0.05355,198.42545L0.05355,233.61069L67.0475,233.61069A337.03112,278.36073 0 0 0 64.47082,266.38405L64.47082,268.65407L21.3542,268.65407C22.72844,421.59641 164.96175,536.23222 355.80864,536.23222C363.36693,536.23222 370.75344,536.23222 378.31173,535.38096S392.22585,536.23222 399.26882,536.23222S414.21362,536.23222 421.77191,535.38096A385.12934,318.08601 0 0 0 663.98082,438.47965L591.48993,374.20981L586.33655,369.52791L566.92549,352.07716L523.29354,352.07716A257.66906,212.81402 0 0 1 407.51424,408.82756A177.79164,146.84166 0 0 0 429.502,412.37445A180.02478,148.68606 0 0 1 408.37314,413.65133A192.3929,158.90114 0 0 1 386.04182,412.37445A173.84072,143.57852 0 0 1 235.73487,267.94467L189.01089,267.94467L189.01089,232.9013L282.11531,232.9013A170.06158,140.45725 0 0 1 429.50201,117.5561A156.49101,129.24905 0 0 1 451.66154,116.27922A145.6689,120.31085 0 0 1 472.7904,117.5561A162.67507,134.35659 0 0 0 450.28731,121.10299A234.30706,193.51887 0 0 1 566.9255,185.37283L566.9255,185.37284L566.92547,185.37284z"
        fill="#ff2351"
      ></path>
      <path
        stroke="null"
        id="svg_3"
        width="100%"
        height="100%"
        fill="#ff2351"
        d="M0.05356,127.48743L42.65484,127.48743L42.65484,162.5308L0.05356,162.5308L0.05356,127.48743z"
      ></path>
      <path
        stroke="null"
        id="svg_4"
        width="100%"
        height="100%"
        d="M377.96816,535.38095C385.01111,535.38095 391.88228,536.23221 398.92525,536.23221S413.87005,536.23221 421.42834,535.38095S435.17069,536.23221 442.21364,536.23221A380.66308,314.39723 0 0 0 706.92564,438.47964L609.69851,352.07715L566.92545,352.07715A250.96967,207.28086 0 0 1 543.21989,369.5279L537.72295,373.21668A237.22732,195.93077 0 0 1 429.50194,412.51634A177.79164,146.84166 0 0 1 407.51418,408.96945A171.77937,141.87601 0 0 1 284.69193,303.12995L363.88223,303.12995L363.88223,267.94471L189.01083,267.94471L189.01083,232.90134L326.43432,232.90134A170.23335,140.59912 0 0 1 450.80259,121.10305A162.67507,134.35659 0 0 1 473.30568,117.55616A213.86532,176.63563 0 0 1 580.66778,160.11896L587.36717,165.08461A257.66906,212.81402 0 0 1 610.55738,185.08912L652.8151,185.08912L749.18332,89.60657A365.89006,302.19591 0 0 0 492.37317,-0.20094C485.50199,-0.20094 478.80261,-0.20094 471.93143,0.50843S456.64307,0.50843 448.91299,0.50843S435.34243,-0.20094 429.50193,0.50843C274.9005,7.03473 154.65493,85.63404 120.29907,197.71608A345.44831,285.31265 0 0 0 112.22545,232.90132A337.03112,278.36073 0 0 0 109.64877,265.67468L109.64877,267.9447L64.64258,267.9447C66.01682,415.92137 198.11515,527.29404 377.96815,535.38098L377.96817,535.38097L377.96816,535.38095z"
        fill="#00d8eb"
      ></path>
      <path
        stroke="null"
        id="svg_5"
        width="100%"
        height="100%"
        fill="#00d8eb"
        d="M364.22583,303.12993L406.82711,303.12993L406.82711,338.1733L364.22583,338.1733L364.22583,303.12993z"
      ></path>
      <path
        stroke="null"
        id="svg_6"
        width="100%"
        height="100%"
        d="M377.96816,535.38095C385.01111,535.38095 391.88228,536.23221 398.92525,536.23221S413.87005,536.23221 421.42834,535.38095A385.12934,318.08601 0 0 0 663.63725,438.47964L591.14636,374.2098L585.99298,369.5279L566.92547,352.07715A250.96967,207.28086 0 0 1 543.21991,369.5279L537.72297,373.21668A237.22732,195.93077 0 0 1 429.50196,412.51634A180.02478,148.68606 0 0 1 408.3731,413.79322A192.3929,158.90114 0 0 1 386.04178,412.51634A173.84072,143.57852 0 0 1 235.73483,267.94469L189.01085,267.94469L189.01085,232.90132L282.11527,232.90132A170.06158,140.45725 0 0 1 429.50197,117.55612A156.49101,129.24905 0 0 1 451.6615,116.27924A145.6689,120.31085 0 0 1 472.79036,117.55612A213.86532,176.63563 0 0 1 580.15246,160.11892L586.85185,165.08457A257.66906,212.81402 0 0 1 610.04206,185.08908L630.14024,165.08457L636.15251,159.12578L706.41028,89.60654A366.74895,302.90528 0 0 0 471.93143,0.5084L448.91299,0.5084C441.18293,0.5084 435.34243,-0.20097 429.50193,0.5084C274.9005,7.0347 154.65493,85.63401 120.29907,197.71605A345.44831,285.31265 0 0 0 112.22545,232.90129A337.03112,278.36073 0 0 0 109.64877,265.67465L109.64877,267.94467L64.64258,267.94467C66.01682,415.92134 198.11515,527.29401 377.96815,535.38095L377.96817,535.38096L377.96816,535.38095z"
        fill="#000b34"
      ></path>
      <path
        id="svg_7"
        width="100%"
        height="100%"
        fill="#ff2351"
        opacity="0.7"
        transform="translate(0 40) scale(0.65 0.65)"
        d="M1138.97961,808.0003155673191 L1111.49491,811.1572828962444 C1116.64829,831.1514167299687 1142.4152,838.5176664135954 1178.48886,835.3607065018688 A48.09822,29.465028403301236 0 0 0 1228.30487,803.7910332126174 C1219.7159,772.2213599233661 1135.54401,791.1631638969169 1130.39063,772.2213599233661 A22.33132,13.680199175873994 0 0 1 1152.72195,759.5934906076656 A63.55836,38.93593039007664 0 0 1 1156.15754,759.5934906076656 A27.4847,16.83716650479913 0 0 1 1192.23122,772.2213599233661 L1219.71592,770.116715037416 A49.81601,30.51735084627628 0 0 0 1152.72197,745.9132914317915 A46.38042,28.412705960326193 0 0 0 1104.62375,774.3259973921178 C1113.21272,805.8956706813691 1195.66682,785.9015442648432 1200.8202,806.9479931243441 C1202.53799,814.3142502251694 1192.23123,819.5758624400446 1175.05329,821.6805147431932 A27.4847,16.83716650479913 0 0 1 1138.97961,808.0003155673191 zM139.22368,810.1049604532693 L111.73898,808.0003155673191 A39.50926,24.203423605624437 0 0 1 67.07635,821.6805147431932 A48.09822,29.465028403301236 0 0 1 29.28488,785.9015516820417 A44.66263,27.36038351735115 0 0 1 80.81868,761.6981280764172 C106.58559,763.8027729623674 116.89236,773.2736749491427 116.89236,784.8492292390666 L146.09486,786.9538741250167 C146.09486,764.8550954053425 122.04574,750.1225886208902 84.25429,746.965621291965 A70.42954,43.145220161976816 0 0 0 1.8001900000000002,784.8492292390666 A68.71174,42.09289771900177 0 0 0 63.64076,836.4130289448439 C104.86782,840.622318716744 130.63471,827.9944494010434 139.22368,810.1049678704677 L139.22368,810.1049604532693 zM642.53723,773.2736749491427 L606.46355,773.2736749491427 L556.64754,861.6687601590464 L585.85004,861.6687601590464 L594.43901,844.8315936542473 L657.99737,844.8315936542473 L668.30413,861.6687601590464 L699.22442,861.6687601590464 L642.53723,773.2736749491427 L642.53721,773.2736749491427 L642.53723,773.2736749491427 zM603.02797,832.2037391729436 L623.6415,791.1631638969169 L625.35929,791.1631638969169 L649.40841,831.1514167299687 L603.02799,832.2037391729436 L603.02797,832.2037391729436 z"
        stroke="null"
      ></path>
      <g stroke="null" id="svg_8">
        <g
          stroke="null"
          id="svg_9"
          data-gra="path-name"
          class="tp-name iconsvg-namesvg"
          transform="matrix(17.1779 0 0 14.1876 -98.1519 -3921.08)"
          opacity="0.71415"
        >
          <g
            stroke="null"
            id="svg_10"
            transform="translate(0 276.36) scale(1 1)"
          >
            <g stroke="null" id="svg_11">
              <path stroke="null" id="svg_12" d=""></path>
            </g>
          </g>
        </g>
        <g
          stroke="null"
          id="svg_13"
          data-gra="path-slogan"
          fill-rule="evenodd"
          class="tp-slogan iconsvg-slogansvg"
          transform="matrix(17.1779 0 0 14.1876 -829.359 -4133.89)"
        >
          <g
            stroke="null"
            id="svg_14"
            transform="translate(0 276.36) scale(1 1)"
          >
            <g
              stroke="null"
              id="svg_15"
              transform="translate(376.762 0) scale(1 1)"
            ></g>
          </g>
        </g>
      </g>
      <path
        stroke="null"
        id="svg_16"
        width="100%"
        height="100%"
        fill="#000b33"
        d="M735.22583,123.12993 L777.82711,123.12993 L777.82711,158.17329999999998 L735.22583,158.17329999999998 L735.22583,123.12993 z"
        fill-opacity="1"
      ></path>
    </g>
  </g>
  <defs opacity="0.33" style="pointer-events: none"></defs>
</svg>
